<svg
    xmlns="http://www.w3.org/2000/svg"
    data-asc=".9"
    viewBox="0 11.9 365.4 46.5"
><path
        d="M5.5 47.5 0 21.3h4.2l3.8 22 3.7-22H17l3.8 22 3.8-22h4.1l-5.6 26.2h-5l-3.8-22.6-3.9 22.6h-5Zm40-26.2h10.3v3.4H45.5v14.6q0 2.9 1.5 4 1.5 1.2 4.3 1.2 1.3 0 2.4-.2l2-.3v3.6q-1.2.4-2.4.5l-2.3.1q-4.7 0-7.2-2-2.5-1.9-2.5-6.2V24.7h-7.5v-3.4h7.5v-7.2h4.2v7.2Zm43.7 23.4V48q-1.6.5-2.5.5-4.3 0-4.7-4-2.2 2.1-4.3 3-2.1 1-4.6 1-3.8 0-6.2-2-2.4-2-2.4-5.7 0-2.7 1.2-4.3 1.1-1.6 2.8-2.5 1.7-.8 3.2-1l2.1-.4 3.7-.5q2.5-.4 3.5-1t1-1.8v-.9q0-3.9-6-3.9-3 0-4.4 1.1-1.5 1.1-1.8 3.6h-4.1q0-4.6 3-6.6 2.8-2 7.5-2 4.8 0 7.3 1.9 2.5 1.8 2.5 5.3v15.1q0 2 2.3 2h.9m-7.3-6.4v-4.1q-1.3.6-3.2.9l-3.5.5q-3 .4-4.7 1.4-1.7 1-1.7 3.5 0 2 1.4 3 1.5 1.1 4 1.1 1.8 0 3.6-.8t3-2.3q1.2-1.4 1.2-3.2Zm29.8-12.6.6-2.8h3l-3 16.1q-.2 1.3.2 2.1.5.8 1.5.8 1.3 0 2.3-1.6 1-1.6 1.5-4.3.7-2.8.7-6 0-7.3-2.6-11.2-2.6-3.8-7.5-3.8-3.8 0-6.6 2.3-2.8 2.5-4.2 6.8-1.5 4.3-1.5 10 0 4.3 1.3 7.5 1.3 3.3 3.3 5.4 2 2.3 4.4 3.4 2.4 1 4.7 1 2 0 3.4-.3 1.3-.3 2.7-1l1 2.8q-1.5.8-3.1 1.2-1.6.4-4.1.4-3.3 0-6.4-1.4-3-1.4-5.4-4-2.4-2.6-3.8-6.3-1.3-3.8-1.3-8.5 0-7 1.9-12t5.5-7.7q3.5-2.8 8.3-2.8 6.3 0 9.8 4.8 3.4 4.8 3.4 13.4 0 4.4-1 7.7-1.1 3.4-2.9 5.3-1.8 1.9-4 1.9-1.6 0-2.7-1-1-.8-1.3-2.6-.9 1.8-2.2 2.6-1.3 1-2.4 1-2.6 0-4.2-2.5-1.5-2.5-1.5-6.7 0-4.1 1.2-7.2 1.2-3 3.1-4.8 2-1.7 4-1.7 1.7 0 2.7 1.1.9 1.2 1.2 2.6m-4-.4q-1.3 0-2.4 1.3-1.1 1.4-1.8 3.7-.7 2.4-.7 5.5 0 2.8.8 4.3.7 1.4 2.3 1.4 1.1 0 1.8-.8t1.4-2.3q.4-1 .7-2.4l.5-3.1.2-3q0-2.2-.8-3.4-.7-1.2-2-1.2Zm28.2-7.8v-5h5v5h-5m4.5 3.7v22.8h8.1v3.4h-21.2v-3.4h9V24.7h-9v-3.4h13.1Zm39.8 18.1q-.6 4.1-3.6 6.6-3 2.4-7.5 2.4-4 0-6.7-1.8-2.6-1.8-4-4.9-1.3-3-1.3-7 0-4.5 1.6-7.6 1.5-3.2 4.2-4.9 2.7-1.7 6.3-1.7 4 0 6.6 1.9 2.5 1.9 3.8 5.3 1.2 3.4 1.2 8h-19.3q.1 3.8 2 6.3t5.7 2.5q5.2 0 6.9-5.1h4.2m-11.2-15q-3.5 0-5.3 2.3-1.9 2.3-2.2 5.6h14.7q0-2.2-.9-4-.8-1.8-2.5-2.9-1.6-1-3.8-1Zm42 15q-.6 4.1-3.6 6.6-3 2.4-7.6 2.4-3.9 0-6.6-1.8-2.6-1.8-4-4.9-1.3-3-1.3-7 0-4.5 1.6-7.6 1.5-3.2 4.2-4.9 2.6-1.7 6.3-1.7 4 0 6.6 1.9 2.6 1.9 3.8 5.3 1.2 3.4 1.2 8h-19.3q.1 3.8 2 6.3t5.7 2.5q5.2 0 6.8-5.1h4.3m-11.2-15q-3.5 0-5.3 2.3-1.9 2.3-2.2 5.6h14.7q0-2.2-.9-4-.9-1.8-2.5-2.9-1.6-1-3.8-1Zm42 15q-.6 4.1-3.6 6.6-3 2.4-7.6 2.4-3.9 0-6.6-1.8-2.6-1.8-4-4.9-1.3-3-1.3-7 0-4.5 1.5-7.6 1.5-3.2 4.3-4.9 2.7-1.7 6.3-1.7 4 0 6.6 1.9 2.6 1.9 3.8 5.3 1.2 3.4 1.2 8h-19.3q.1 3.8 2 6.3t5.7 2.5q5.2 0 6.8-5.1h4.3m-11.2-15q-3.5 0-5.3 2.3-1.9 2.3-2.2 5.6h14.7q0-2.2-.9-4-.8-1.8-2.4-2.9-1.7-1-3.9-1Zm27.2 16.3h6.8v6.8h-6.8v-6.8Zm34.3-20.2q4.1 0 6.7 1.8 2.6 1.8 4 5 1.2 3.1 1.2 7.2 0 3.9-1.3 7-1.3 3.3-3.9 5-2.6 1.9-6.7 1.9-4 0-6.6-1.8-2.7-1.9-4-5-1.2-3.2-1.2-7.1 0-4 1.3-7.2t3.9-5q2.6-1.8 6.6-1.8m0 3.9q-2.6 0-4.3 1.4-1.6 1.3-2.4 3.6-.8 2.4-.8 5 0 2.7.8 5 .8 2.4 2.4 3.8 1.7 1.3 4.3 1.3 2.7 0 4.4-1.4 1.6-1.4 2.4-3.7.8-2.3.8-5 0-2.6-.8-5-.8-2.3-2.4-3.6-1.7-1.4-4.4-1.4Zm21.7 23.1V21.3h3.8v5.6q1.4-2.8 3.8-4.5 2.4-1.8 5.7-1.8 4.5 0 6.8 2.3 2.4 2.3 2.8 6.2h-4.2q-.4-2.4-1.8-3.7-1.4-1.2-4-1.2t-4.6 1.4q-2 1.3-3 3.7-1.1 2.4-1.1 5.5v12.7h-4.2Zm39.5 10.9q-4.3 0-7.2-1.9-3-1.9-3.5-6h4.4q.8 4.4 6.4 4.4 4 0 5.7-2.2 1.7-2.2 1.7-7.4v-1.5q-1.2 2.3-3.2 3.5-2 1.1-4.6 1.1-3.9 0-6.4-1.9-2.5-1.8-3.8-5-1.2-3.2-1.2-7.2 0-3.8 1.3-7 1.2-3.1 3.7-5 2.6-1.8 6.3-1.8 5.3 0 8 4v-3.2h4.2v22q0 5.4-1 8.3-1 3.4-3.8 5-2.8 1.8-7 1.8m.3-13.9q2.7 0 4.3-1.5 1.6-1.5 2.3-3.7.7-2.3.7-4.7 0-2.7-.8-5-.7-2.3-2.3-3.8-1.6-1.4-4.3-1.4-2.4 0-4.1 1.3-1.7 1.4-2.6 3.6-.9 2.3-.9 5.2 0 2.6.9 4.9.8 2.3 2.4 3.7 1.7 1.4 4.4 1.4Z"
    /></svg>
